<svg xmlns="http://www.w3.org/2000/svg" xmlns:xlink="http://www.w3.org/1999/xlink" viewBox="0 0 93.5 75.67"><defs><style>.cls-1{isolation:isolate;}.cls-2{fill:#faaf40;}.cls-3{fill:url(#linear-gradient);}.cls-4,.cls-5{fill:#bc5b16;}.cls-5{opacity:0.51;mix-blend-mode:screen;}</style><linearGradient id="linear-gradient" x1="-60.46" y1="36.86" x2="-49.46" y2="25.85" gradientTransform="matrix(-1, 0, 0, 1, -20.46, 0)" gradientUnits="userSpaceOnUse"><stop offset="0" stop-color="#f3b33a"/><stop offset="1" stop-color="#d78e28"/></linearGradient></defs><title>Asset 28</title><g class="cls-1"><g id="Layer_2" data-name="Layer 2"><g id="Layer_1-2" data-name="Layer 1"><path class="cls-2" d="M65.2,75.27a28,28,0,0,0,17.63-12A6.37,6.37,0,1,0,72.3,56.05c-4.53,6.63-11.38,8-15.52,5.91-4.83-2.43-5.92-9.08-2.91-17.79,2.57-7.42,1.91-14.68-1.89-21C41.57,5.87,10.83.62,7.36.08a6.37,6.37,0,0,0-2,12.59h0c7.81,1.23,29.45,6.7,35.68,17.08,1.86,3.11,2.11,6.37.76,10.26-6.23,18,1.07,29.24,9.23,33.33A22.08,22.08,0,0,0,65.2,75.27Z"/><path class="cls-3" d="M65.2,75.27a28,28,0,0,0,17.63-12A6.37,6.37,0,1,0,72.3,56.05c-4.53,6.63-11.38,8-15.52,5.91-4.83-2.43-5.92-9.08-2.91-17.79,2.57-7.42,1.91-14.68-1.89-21C41.57,5.87,10.83.62,7.36.08a6.37,6.37,0,0,0-2,12.59h0c7.81,1.23,29.45,6.7,35.68,17.08,1.86,3.11,2.11,6.37.76,10.26-6.23,18,1.07,29.24,9.23,33.33A22.08,22.08,0,0,0,65.2,75.27Z"/><path class="cls-4" d="M70.16,58.71A10,10,0,0,1,77,60.19a9.54,9.54,0,0,1,3.76,5.91s4.21.57,8.87-4.89,5-11.84,1.63-17.87-.91-8.87-.91-8.87S63.32,33.87,70.16,58.71Z"/><path class="cls-5" d="M90.33,34.48s-27-.61-20.18,24.23a10.41,10.41,0,0,1,4.73.46,65.94,65.94,0,0,0,3.47-11.29C80.44,37.44,90.33,34.48,90.33,34.48Z"/></g></g></g></svg>