<svg xmlns="http://www.w3.org/2000/svg" viewBox="0 0 325.49 209.76"><defs><style>.cls-1{isolation:isolate;}.cls-2,.cls-3{fill:#8cc53f;}.cls-3{opacity:0.58;mix-blend-mode:multiply;}</style></defs><title>Asset 29</title><g class="cls-1"><g id="Layer_2" data-name="Layer 2"><g id="Layer_1-2" data-name="Layer 1"><path class="cls-2" d="M61.92,208.79S36,84.55,0,37.08c0,0,104.75,49.75,104.75,172.68Z"/><path class="cls-2" d="M78.39,208.79C77.73,205.86,67.85,60.49,140.32,0c0,0-22.39,117.08-22.39,206.83Z"/><path class="cls-2" d="M110,208.79s4-101.46,69.18-138.54c-2,2.93-43.48,64.39-43.48,136.58Z"/><path class="cls-3" d="M117.93,206.83C117.93,117.08,140.32,0,140.32,0S101.84,81.76,96.85,207.88Z"/><path class="cls-3" d="M135.71,206.83c0-72.19,41.51-133.66,43.48-136.58,0,0-47.44,56.38-54.23,137.41Z"/><path class="cls-3" d="M61.92,208.79l13.09.3c-14.3-121.72-75-172-75-172C36,84.55,61.92,208.79,61.92,208.79Z"/><path class="cls-2" d="M186.89,206.91S211.22,114.45,245,79.12c0,0-98.34,37-98.34,128.52Z"/><path class="cls-2" d="M171.42,206.91c.62-2.18,9.9-110.37-58.13-155.39,0,0,21,87.14,21,153.94Z"/><path class="cls-2" d="M141.74,206.91S138,131.4,76.79,103.81c1.86,2.17,40.82,47.92,40.82,101.65Z"/><path class="cls-3" d="M134.32,205.46c0-66.8-21-153.94-21-153.94s36.12,60.85,40.82,154.72Z"/><path class="cls-3" d="M117.62,205.46c0-53.73-39-99.48-40.82-101.65,0,0,44.53,42,50.91,102.26Z"/><path class="cls-3" d="M186.89,206.91l-12.29.23C188,116.54,245,79.12,245,79.12,211.22,114.45,186.89,206.91,186.89,206.91Z"/><path class="cls-2" d="M245,207.64s4.6-75.52,80.44-103.11c-2.3,2.18-50.56,47.92-50.56,101.66Z"/><path class="cls-3" d="M274.92,206.19c0-53.73,48.26-99.48,50.56-101.66,0,0-55.16,42-63.05,102.27Z"/><path class="cls-2" d="M250.89,206.64S275.21,78.37,309,29.36c0,0-98.34,51.37-98.34,178.28Z"/><path class="cls-3" d="M250.89,206.64l-12.29.3C252,81.28,309,29.36,309,29.36,275.21,78.37,250.89,206.64,250.89,206.64Z"/><path class="cls-2" d="M187.73,207.64s10.05-128.09,59.43-199l-28.34,198Z"/><path class="cls-3" d="M245.87,17.58C239.85,40,214.05,138,205,207l13.77-.46Z"/></g></g></g></svg>